<svg xmlns="http://www.w3.org/2000/svg" viewBox="0 16.950000762939453 97.19999694824219 44.5" data-asc="1.16" width="97.19999694824219" height="44.5"><defs/><g fill="#ae00ff"><g transform="translate(0, 0)"><path d="M33.60 42.90L17.15 42.90L17.15 47.45L27.35 47.45Q27.40 46.90 27.82 46.40Q28.25 45.90 28.90 45.90Q29.55 45.90 30.00 46.42Q30.45 46.95 30.45 47.55Q30.45 48.15 30.00 48.62Q29.55 49.10 28.85 49.10L17.15 49.10L17.15 52.90L27.35 52.90Q27.40 52.40 27.85 51.90Q28.30 51.40 28.90 51.40Q29.60 51.40 30.03 51.90Q30.45 52.40 30.45 53.05Q30.45 53.55 30.03 54.10Q29.60 54.65 29 54.65L17.15 54.65L17.15 59.65L28.25 59.65Q30.75 59.65 32.18 58.35Q33.60 57.05 33.60 54.50L33.60 42.90M45.70 34.55Q45.70 35.35 45.18 36.10Q44.65 36.85 43.65 36.85L17 36.85Q16.30 37.95 15.55 39.02Q14.80 40.10 13.95 41.10L37.75 41.10L37.75 53.90Q37.75 57.15 36.65 58.77Q35.55 60.40 33.50 60.92Q31.45 61.45 28.55 61.45L13.35 61.45L13.35 42.10Q11.75 44.10 9.85 46.25Q7.95 48.40 5.95 50.05Q4.70 51.05 3.55 51.72Q2.40 52.40 0.95 53.10Q0.75 53.20 0.65 53.20Q0.55 53.25 0.35 53.25Q0 53.25 0 53.05Q0 52.85 0.30 52.65Q0.70 52.35 1.42 51.67Q2.15 51.00 2.25 50.90Q5.40 47.80 8.10 44.27Q10.80 40.75 12.95 36.85L1.10 36.85L1.10 35.05L13.90 35.05Q14.50 33.90 15.05 32.72Q15.60 31.55 16.15 30.35L5.50 30.35L5.50 28.50L16.80 28.50Q17.20 27.25 17.60 26.00Q18 24.75 18.35 23.50Q16.95 23.55 15.55 23.57Q14.15 23.60 12.70 23.60Q11.15 23.60 9.55 23.57Q7.95 23.55 6.35 23.55Q6.15 23.55 5.97 23.57Q5.80 23.60 5.60 23.55Q5.40 23.55 5 23.47Q4.60 23.40 4.60 23.05Q4.60 22.70 5 22.57Q5.40 22.45 5.65 22.40Q6.70 22.25 7.78 22.15Q8.85 22.05 9.90 21.90Q15.70 21.05 21.43 19.90Q27.15 18.75 32.75 16.95Q33.90 17.80 35.10 18.55Q36.30 19.30 37.40 20.15Q37.65 20.30 37.65 20.55Q37.65 20.85 37.35 21.05Q37.20 21.10 37.05 21.17Q36.90 21.25 36.75 21.30Q36.20 21.45 35.63 21.52Q35.05 21.60 34.50 21.70Q33.95 21.75 33.38 21.80Q32.80 21.85 32.25 21.95Q30.15 22.25 28.07 22.50Q26 22.75 23.90 23.00Q23.35 24.40 22.80 25.80Q22.25 27.20 21.55 28.50L34.70 28.50Q34.70 27.55 35.28 26.80Q35.85 26.05 36.80 26.05Q37.65 26.05 38.25 26.75Q38.85 27.45 38.85 28.25Q38.85 29.20 38.23 29.77Q37.60 30.35 36.60 30.35L20.75 30.35Q20.10 31.55 19.48 32.72Q18.85 33.90 18.15 35.05L41.20 35.05Q41.20 33.60 41.85 32.92Q42.50 32.25 43.45 32.25Q44.40 32.25 45.05 32.97Q45.70 33.70 45.70 34.55ZM68.15 28.50Q68.15 29.30 67.65 29.82Q67.15 30.35 66.30 30.35L61.55 30.35L61.55 36.40L64.55 35.00Q64.65 35.35 65.18 36.57Q65.70 37.80 66.25 39.10Q66.80 40.40 67.25 41.50Q67.70 42.60 67.70 42.75Q67.70 43.05 67.40 43.05Q67.05 43.05 66.25 42.30Q65.45 41.55 64.50 40.52Q63.55 39.50 62.75 38.52Q61.95 37.55 61.55 37.10L61.55 60.60L57.75 60.60L57.75 39.10Q56.90 40.55 55.73 42.20Q54.55 43.85 53.25 45.37Q51.95 46.90 50.65 48.00Q50.45 48.15 49.88 48.55Q49.30 48.95 49.05 48.95Q48.75 48.95 48.75 48.75Q48.75 48.60 48.85 48.47Q48.95 48.35 49 48.30Q49.65 47.40 50.25 46.52Q50.85 45.65 51.40 44.70Q53.25 41.35 54.68 37.75Q56.10 34.15 56.75 30.35L50.95 30.35L50.95 28.70L57.75 28.70L57.75 17.55L61.55 17.55L61.55 28.70L64.60 28.70Q64.60 28.00 65.05 27.27Q65.50 26.55 66.40 26.55Q67.15 26.55 67.65 27.17Q68.15 27.80 68.15 28.50M97.20 59.10Q97.20 59.85 96.48 60.52Q95.75 61.20 94.95 61.20Q94.15 61.20 93 60.60Q91.85 60.00 90.78 59.25Q89.70 58.50 89.05 58.00Q88.25 57.35 87.53 56.62Q86.80 55.90 86.10 55.15Q84.70 53.60 83.45 52.05Q80.50 55.25 77.13 57.57Q73.75 59.90 69.60 61.20Q69.55 61.25 69.40 61.30Q69.25 61.35 69.15 61.35Q68.70 61.35 68.70 61.05Q68.70 60.80 69 60.60Q69.45 60.35 69.90 60.10Q70.35 59.85 70.75 59.65Q73.75 57.85 76.63 55.00Q79.50 52.15 81.40 49.30Q79.70 46.90 78.48 44.27Q77.25 41.65 76.30 38.85L79.60 36.70Q80.25 39.25 81.28 41.65Q82.30 44.05 83.40 46.35Q84.85 43.45 85.70 40.57Q86.55 37.70 87.15 34.50L75.10 34.50Q75.05 38.35 74.25 42.25Q73.45 46.15 71.78 49.72Q70.10 53.30 67.45 56.20Q67.25 56.40 66.70 57.00Q66.15 57.60 65.58 58.12Q65 58.65 64.70 58.65Q64.55 58.65 64.45 58.50Q64.35 58.35 64.35 58.25Q64.35 58.15 64.58 57.82Q64.80 57.50 65.10 57.15Q65.35 56.75 65.65 56.42Q65.95 56.10 66 55.95Q68.15 52.55 69.23 48.87Q70.30 45.20 70.68 41.32Q71.05 37.45 71.05 33.55Q71.05 30.30 71 27.05Q70.95 23.80 70.90 20.50L89.55 20.50Q89.55 19.70 90.08 18.75Q90.60 17.80 91.60 17.80Q92.50 17.80 93.18 18.50Q93.85 19.20 93.85 20.05Q93.85 21.15 93.18 21.72Q92.50 22.30 91.40 22.30L75.30 22.30Q75.30 24.90 75.30 27.52Q75.30 30.15 75.20 32.70L92.20 32.70Q91.95 35.55 91.03 38.60Q90.10 41.65 88.68 44.50Q87.25 47.35 85.55 49.60Q87.20 52.15 89.13 54.47Q91.05 56.80 93.35 58.80Q93.45 58.15 94.08 57.65Q94.70 57.15 95.35 57.15Q96.20 57.15 96.70 57.72Q97.20 58.30 97.20 59.10Z"/></g></g></svg>